<svg version="1.2" xmlns="http://www.w3.org/2000/svg" viewBox="0 0 18 18" width="18" height="18"><defs><clipPath clipPathUnits="userSpaceOnUse" id="cp1"><path d="m-1186-26h1366v2230h-1366z" /></clipPath></defs><style>.s0{fill:#ffffff}</style><g clip-path="url(#cp1)"><path class="s0" d="m4 4.5h13c0 0 1 0 1 1l-1 6c-0.1 0.5-0.4 1-0.9 1h-10.1l0.1 1.3c0.1 0.3 0.4 0.7 0.7 0.7h8.8q0.1 0 0.1 0c0.7 0.1 1.3 0.7 1.3 1.5c0 0.8-0.7 1.5-1.5 1.5c-0.8 0-1.5-0.7-1.5-1.5q0-0.3 0.1-0.5h-6.2q0.1 0.2 0.1 0.5c0 0.8-0.7 1.5-1.5 1.5c-0.8 0-1.5-0.7-1.5-1.5c0-0.5 0.2-0.9 0.6-1.2q-0.3-0.4-0.4-0.8l-0.4-1.9l-2.8-10.6h-1.5c-0.3 0-0.5-0.3-0.5-0.5c0-0.3 0.2-0.5 0.5-0.5h2.1c0.2 0 0.4 0.1 0.4 0.4z" /></g></svg>