<svg version="1.2" xmlns="http://www.w3.org/2000/svg" viewBox="0 0 10 18" width="10" height="18">
	<title>Icon/Social network/Facebook</title>
	<style>
		.s0 { fill: #ffffff } 
	</style>
	<path id="Facebook" class="s0" d="m10 0.4v2.7c0 0.2-0.2 0.4-0.4 0.4h-1.6c-1.1 0-1.3 0.4-1.3 1.2v1.8h2.8q0.2 0 0.3 0.1q0.1 0.1 0.1 0.2v3c0 0.2-0.2 0.4-0.4 0.4h-2.8v7.4c0 0.2-0.2 0.4-0.4 0.4h-3.1c-0.2 0-0.4-0.2-0.4-0.4v-7.4h-2.4c-0.2 0-0.4-0.2-0.4-0.4v-3c0-0.2 0.2-0.3 0.4-0.3h2.4v-2.1c0-2.7 1.7-4.4 4.4-4.4h2.4c0.2 0 0.4 0.2 0.4 0.4z" />
</svg>