<svg version="1.2" xmlns="http://www.w3.org/2000/svg" viewBox="0 0 18 18" width="18" height="18">
	<title>Icon/Social network/Instagram</title>
	<style>
		.s0 { fill: #ffffff } 
	</style>
	<path id="Instagram" fill-rule="evenodd" class="s0" d="m9 0.5c2.3 0 2.6 0 3.5 0.1c0.9 0 1.5 0.1 2.1 0.3c0.5 0.3 1 0.6 1.5 1c0.4 0.5 0.7 1 1 1.5c0.2 0.6 0.3 1.2 0.3 2.1c0.1 0.9 0.1 1.2 0.1 3.5c0 2.3 0 2.6-0.1 3.5c0 0.9-0.1 1.5-0.3 2.1c-0.3 0.5-0.6 1-1 1.5c-0.5 0.4-1 0.7-1.5 1c-0.6 0.2-1.2 0.3-2.1 0.3c-0.9 0.1-1.2 0.1-3.5 0.1c-2.3 0-2.6 0-3.5-0.1c-0.9 0-1.5-0.1-2.1-0.3c-0.5-0.3-1-0.6-1.5-1c-0.4-0.5-0.7-1-1-1.5c-0.2-0.6-0.3-1.2-0.3-2.1c-0.1-0.9-0.1-1.2-0.1-3.5c0-2.3 0-2.6 0.1-3.5c0-0.9 0.1-1.5 0.3-2.1c0.3-0.5 0.6-1 1-1.5c0.5-0.4 1-0.7 1.5-1c0.6-0.2 1.2-0.3 2.1-0.3c0.9-0.1 1.2-0.1 3.5-0.1zm-4.4 8.5c0 2.4 2 4.4 4.4 4.4c2.4 0 4.4-2 4.4-4.4c0-2.4-2-4.4-4.4-4.4c-2.4 0-4.4 2-4.4 4.4zm1.6 0c0-1.6 1.2-2.8 2.8-2.8c1.6 0 2.8 1.2 2.8 2.8c0 1.6-1.2 2.8-2.8 2.8c-1.6 0-2.8-1.2-2.8-2.8zm7.6-5.7c-0.6 0-1 0.5-1 1.1c0 0.5 0.4 1 1 1c0.6 0 1.1-0.5 1.1-1c0-0.6-0.5-1.1-1.1-1.1z" />
</svg>