<svg version="1.2" xmlns="http://www.w3.org/2000/svg" viewBox="0 0 129 20" width="129" height="20">
	<title>Willberries</title>
	<style>
		.s0 { fill: #262d33 } 
	</style>
	<path id="Willberries" fill-rule="evenodd" class="s0" d="m6.1 19l-4-14.8l-1.7-0.2v-2.1h6.9v2.1l-1.9 0.3l2 8.3l0.4 1.5h0.1l0.4-1.5l3.4-10.7h2.5l3.5 11l0.4 1.3h0.1l0.3-1.3l2.1-8.6l-1.9-0.3v-2.1h6.7v2.1l-1.6 0.2l-4 14.8h-3.1l-3.3-10l-0.4-1.4h-0.1l-0.4 1.5l-3.3 9.9zm20.4 0v-2.1l1.6-0.3v-7.9l-1.8-0.3v-2.1h5.2v10.3l1.7 0.3v2.1zm1.5-15.4v-2.9h3.5v2.9zm6.2 15.4v-2.1l1.6-0.3v-13.5l-1.8-0.3v-2.1h5.3v15.9l1.6 0.3v2.1zm7.7 0v-2.1l1.6-0.3v-13.5l-1.8-0.3v-2.1h5.2v15.9l1.7 0.3v2.1zm15.3 0.2q-1.2 0-2-0.4q-0.9-0.5-1.4-1.4l-0.3 1.6h-2.9v-15.9l-1.8-0.3v-2.1h5.2v7q0.5-0.8 1.3-1.2q0.8-0.4 1.9-0.4q2.3 0 3.6 1.8q1.2 1.8 1.2 4.9v0.2q0 2.8-1.2 4.5q-1.3 1.7-3.6 1.7zm-1.1-2.6q1.4 0 1.9-0.9q0.6-1 0.6-2.7v-0.2q0-1.9-0.6-3q-0.6-1.1-1.8-1.1q-0.8 0-1.3 0.4q-0.6 0.4-0.9 1v5.3q0.7 1.2 2.1 1.2zm13.7 2.6q-1.8 0-3.1-0.8q-1.4-0.8-2.1-2.2q-0.8-1.4-0.8-3.2v-0.4q0-1.9 0.7-3.4q0.7-1.5 2-2.3q1.3-0.8 3-0.8q2.6 0 4 1.5q1.3 1.5 1.3 4.2v1.9h-7.4h-0.1q0.1 1.3 0.9 2.1q0.7 0.8 2.1 0.8q0.9 0 1.7-0.2q0.8-0.3 1.6-0.7l0.9 2.1q-0.7 0.6-1.9 1q-1.2 0.4-2.8 0.4zm-2.4-7.8h4.2v-0.3q0-1.1-0.5-1.8q-0.4-0.7-1.5-0.7q-1 0-1.6 0.8q-0.5 0.8-0.6 2zm9.2 7.5v-2l1.7-0.4v-7.8l-1.9-0.4v-2h5.1l0.1 1.5v0.3q0.9-2.1 2.8-2.1q0.3 0 0.7 0.1q0.3 0 0.6 0.1l-0.3 3.2l-1.7-0.1q-0.8-0.1-1.2 0.2q-0.5 0.3-0.8 0.8v6.2l1.6 0.4v2zm10.4 0v-2l1.7-0.4v-7.8l-1.9-0.4v-2h5l0.2 1.5v0.3q0.9-2.1 2.8-2.1q0.3 0 0.7 0.1q0.3 0 0.6 0.1l-0.3 3.2l-1.7-0.1q-0.8-0.1-1.2 0.2q-0.5 0.3-0.8 0.8v6.2l1.6 0.4v2zm10.2 0v-2l1.6-0.4v-7.8l-1.8-0.4v-2h5.3v10.2l1.6 0.4v2zm1.5-15.3v-2.9h3.6v2.9zm12.4 15.6q-1.8 0-3.2-0.8q-1.4-0.8-2.1-2.2q-0.7-1.4-0.7-3.2v-0.5q0-1.9 0.7-3.3q0.7-1.5 1.9-2.3q1.3-0.9 3.1-0.9q2.5 0 3.9 1.5q1.4 1.5 1.4 4.3v1.8h-7.5v0.1q0.1 1.2 0.8 2.1q0.8 0.8 2.1 0.8q1 0 1.8-0.3q0.8-0.2 1.6-0.7l0.9 2.1q-0.8 0.7-2 1.1q-1.2 0.4-2.7 0.4zm-2.5-7.8h4.3v-0.3q0-1.2-0.5-1.9q-0.5-0.6-1.6-0.6q-1 0-1.5 0.7q-0.6 0.8-0.7 2zm14.4 7.8q-1.4 0-2.6-0.2q-1.2-0.3-2.3-0.8l-0.1-3.6h2.4l0.5 1.8q0.4 0.2 0.8 0.3q0.5 0.2 1.1 0.2q1.2 0 1.6-0.4q0.5-0.4 0.5-1q0-0.5-0.5-0.9q-0.5-0.4-2-0.7q-2.2-0.5-3.3-1.4q-1.1-1-1.1-2.6q0-1 0.6-1.9q0.5-0.9 1.6-1.4q1.1-0.5 2.8-0.5q1.4 0 2.6 0.3q1.2 0.2 2 0.7l0.1 3.5h-2.4l-0.4-1.7q-0.7-0.5-1.7-0.5q-0.9 0-1.4 0.4q-0.4 0.4-0.4 0.9q0 0.5 0.4 0.9q0.4 0.4 1.9 0.7q2.3 0.6 3.4 1.5q1.1 0.9 1.1 2.5q0 1.7-1.3 2.8q-1.3 1.1-3.9 1.1z" />
</svg>