<svg version="1.2" xmlns="http://www.w3.org/2000/svg" viewBox="0 0 18 16" width="18" height="16">
	<title>Icon/Social network/Twitter</title>
	<style>
		.s0 { fill: #ffffff } 
	</style>
	<path id="Twitter" class="s0" d="m18 2.5q-0.8 1.1-1.8 1.9q0 0.2 0 0.4c0 5.2-3.9 10.6-10.5 10.6c-2 0-4-0.6-5.7-1.7q0 0 0-0.1q0 0 0.1 0q0.4 0 0.9 0c1.5 0 3-0.5 4.3-1.4c-1.5-0.1-2.8-1.2-3.3-2.6q0-0.1 0-0.1q0.1 0 0.1 0q0.6 0.1 1.2 0c-1.5-0.5-2.6-2-2.6-3.6v-0.1q0 0 0.1 0q0-0.1 0 0q0.7 0.3 1.4 0.4c-0.9-0.7-1.5-1.8-1.5-3c0-0.6 0.2-1.3 0.6-1.9q0 0 0 0q0.1 0 0.1 0c1.8 2.3 4.5 3.6 7.4 3.8q-0.1-0.3-0.1-0.7c0-2.1 1.7-3.8 3.7-3.8c1 0 2 0.4 2.7 1.2q1.2-0.3 2.3-0.9q0 0 0.1 0q0 0 0 0.1c-0.2 0.7-0.7 1.4-1.3 1.9q0.9-0.2 1.7-0.6q0 0 0.1 0.1q0 0 0 0.1z" />
</svg>